<?xml version="1.0" standalone="no"?>
<!DOCTYPE svg PUBLIC "-//W3C//DTD SVG 20010904//EN"
 "http://www.w3.org/TR/2001/REC-SVG-20010904/DTD/svg10.dtd">
<svg version="1.0" xmlns="http://www.w3.org/2000/svg"
 width="1632.000000pt" height="1632.000000pt" viewBox="0 0 1632.000000 1632.000000"
 preserveAspectRatio="xMidYMid meet">
<metadata>
Created by potrace 1.14, written by Peter Selinger 2001-2017
</metadata>
<g transform="translate(0.000000,1632.000000) scale(0.100000,-0.100000)"
fill="#000000" stroke="none">
<path d="M4639 11556 c-2 -2 -30 -6 -62 -10 -32 -3 -62 -8 -65 -10 -4 -2 -25
-7 -47 -11 -45 -7 -54 -9 -75 -18 -23 -9 -95 -30 -97 -29 -1 0 -35 -16 -75
-36 -40 -19 -75 -36 -78 -36 -3 -1 -30 -16 -60 -35 -158 -100 -293 -229 -407
-391 -40 -58 -80 -114 -89 -125 -8 -11 -71 -99 -139 -195 -137 -194 -164 -232
-183 -258 -67 -92 -102 -143 -102 -149 0 -3 -7 -13 -15 -22 -26 -27 -115 -151
-115 -161 0 -4 -3 -10 -8 -12 -4 -1 -31 -37 -60 -78 -191 -270 -252 -356 -260
-365 -5 -6 -17 -24 -28 -40 -10 -17 -24 -36 -31 -43 -7 -7 -13 -17 -13 -21 0
-4 -8 -16 -17 -27 -10 -11 -34 -42 -53 -69 -19 -28 -38 -51 -42 -53 -4 -2 -8
-8 -8 -14 0 -8 -37 -63 -65 -94 -10 -12 -101 -142 -120 -172 -5 -9 -14 -21
-18 -26 -16 -22 -82 -114 -95 -132 -32 -47 -133 -190 -142 -201 -6 -7 -25 -34
-43 -60 -17 -27 -37 -55 -44 -63 -10 -12 -102 -140 -143 -200 -47 -67 -133
-188 -145 -203 -8 -9 -15 -20 -15 -23 0 -2 -5 -10 -10 -17 -29 -33 -180 -249
-180 -257 0 -4 -4 -10 -8 -12 -4 -1 -33 -39 -64 -83 -32 -44 -61 -85 -65 -91
-4 -5 -12 -17 -18 -26 -14 -21 -113 -159 -128 -178 -7 -9 -25 -36 -42 -60 -16
-25 -33 -46 -37 -48 -5 -2 -8 -10 -8 -17 0 -7 -4 -15 -8 -17 -4 -1 -73 -95
-152 -208 -79 -113 -147 -207 -150 -210 -3 -3 -25 -34 -49 -70 -25 -36 -47
-67 -51 -70 -3 -3 -17 -23 -32 -45 -15 -22 -43 -62 -63 -90 -19 -27 -47 -68
-62 -90 -14 -22 -29 -42 -33 -45 -3 -3 -31 -41 -61 -85 -29 -44 -58 -85 -64
-91 -5 -6 -16 -20 -23 -30 -7 -11 -70 -100 -140 -200 -128 -182 -167 -248
-188 -319 -32 -108 -37 -141 -38 -250 0 -124 2 -141 28 -237 42 -155 147 -310
276 -408 18 -14 38 -30 44 -35 27 -25 205 -103 236 -104 3 0 28 -7 55 -16 44
-13 310 -14 2290 -12 1232 2 2257 6 2277 9 21 4 57 9 80 12 125 17 313 69 448
123 107 42 286 130 320 158 8 6 40 27 70 45 30 18 57 35 60 39 3 3 32 26 65
51 33 24 71 54 85 67 199 184 254 248 420 488 38 55 74 106 80 112 6 7 31 43
57 80 26 38 50 70 53 73 4 3 15 20 25 38 11 17 23 32 27 32 4 0 8 4 8 10 0 8
99 150 130 187 5 7 10 17 10 23 0 5 3 10 8 10 4 0 25 27 47 60 22 33 43 60 48
60 4 0 7 6 7 13 0 6 10 24 23 39 12 15 49 66 82 113 81 117 132 188 145 202 5
7 10 17 10 23 0 5 3 10 8 10 4 0 18 18 32 40 14 22 28 40 32 40 5 0 8 7 8 15
0 8 5 15 10 15 6 0 10 6 10 14 0 8 4 16 8 18 5 2 30 35 56 73 27 39 58 80 69
93 11 12 17 22 13 22 -4 0 0 7 9 16 9 9 24 29 33 43 9 14 21 31 25 36 5 6 42
57 82 115 41 58 79 110 85 117 5 7 10 16 10 22 0 5 3 11 8 13 7 3 71 88 112
150 24 36 40 48 40 29 0 -4 14 -26 30 -47 38 -50 46 -60 100 -139 50 -72 364
-514 377 -530 4 -5 26 -37 48 -70 22 -33 43 -62 46 -65 7 -6 119 -164 134
-188 6 -10 13 -19 16 -22 5 -5 60 -82 89 -125 43 -64 85 -120 92 -123 4 -2 8
-8 8 -13 0 -6 22 -40 50 -77 27 -37 59 -80 70 -97 66 -94 173 -242 185 -258 8
-9 15 -22 15 -27 0 -6 5 -10 10 -10 6 0 10 -4 10 -9 0 -10 41 -67 213 -302 94
-127 226 -268 342 -363 98 -81 101 -83 127 -97 13 -6 25 -15 28 -19 6 -10 153
-99 205 -125 22 -11 52 -28 68 -38 15 -10 27 -16 27 -13 0 2 28 -8 63 -24 157
-71 428 -143 575 -152 19 -1 36 -6 38 -10 3 -4 1007 -7 2232 -7 2415 -1 2226
-4 2415 43 10 3 50 21 90 41 181 92 309 232 391 425 61 144 69 335 21 530 -12
53 -59 149 -94 195 -16 22 -55 74 -85 115 -30 41 -61 83 -68 92 -7 9 -19 25
-25 35 -7 10 -87 123 -177 250 -91 128 -186 263 -212 300 -26 38 -50 70 -54
73 -3 3 -16 22 -29 43 -13 21 -28 43 -35 50 -7 6 -32 41 -56 77 -24 36 -46 67
-50 70 -4 3 -10 12 -13 20 -4 8 -23 35 -42 60 -20 25 -38 53 -41 62 -3 9 -12
19 -20 22 -8 3 -14 12 -14 21 0 8 -3 15 -7 15 -5 0 -21 21 -38 48 -16 26 -35
53 -42 60 -7 7 -33 43 -58 80 -25 37 -64 92 -86 122 -22 30 -52 73 -66 95 -14
22 -29 42 -33 45 -3 3 -22 28 -40 55 -19 28 -37 52 -42 53 -4 2 -8 8 -8 13 0
12 -39 69 -62 90 -10 9 -18 20 -18 24 0 5 -12 24 -27 44 -16 20 -43 59 -62 86
-19 28 -37 52 -40 55 -3 3 -10 12 -16 22 -14 22 -156 224 -177 251 -10 12 -22
28 -28 35 -6 6 -7 12 -3 12 4 0 3 4 -3 8 -6 4 -56 70 -110 147 -54 77 -107
149 -116 159 -10 11 -18 23 -18 28 0 4 -7 16 -15 25 -8 10 -41 56 -74 103 -33
47 -64 90 -69 95 -5 6 -17 24 -28 40 -10 17 -22 35 -27 40 -4 6 -25 35 -47 65
-22 30 -44 60 -50 67 -5 7 -10 16 -10 22 0 5 -4 11 -8 13 -5 2 -30 35 -57 73
-26 39 -104 148 -172 242 -67 95 -123 177 -123 183 0 5 -3 10 -7 10 -5 0 -24
24 -43 53 -19 28 -40 58 -47 65 -7 7 -20 26 -30 42 -9 17 -21 30 -25 30 -4 0
-8 6 -8 13 0 8 -9 22 -20 32 -11 10 -20 24 -20 31 0 7 -4 14 -8 16 -4 2 -30
35 -57 73 -27 39 -53 75 -58 80 -4 6 -61 87 -128 180 -66 94 -126 178 -134
187 -7 9 -19 27 -26 40 -6 13 -15 25 -19 28 -6 5 -134 184 -155 218 -5 9 -18
25 -27 36 -10 11 -18 23 -18 27 0 3 -14 24 -30 45 -17 22 -40 53 -53 69 -25
34 -145 156 -197 200 -67 57 -136 100 -250 157 -47 24 -87 43 -90 44 -3 0 -13
4 -22 7 -42 16 -54 20 -63 22 -5 2 -37 10 -70 19 -171 46 -22 44 -3741 45
-1925 1 -3502 0 -3505 -3z"/>
</g>
</svg>
