<svg width="24" height="24" viewBox="0 0 24 24" fill="none" xmlns="http://www.w3.org/2000/svg">
<path d="M21.7252 5.00036C21.5116 5.00672 21.3089 5.09598 21.1601 5.24922L8.58846 17.8208L3.41533 12.6477C3.33958 12.5688 3.24885 12.5058 3.14846 12.4624C3.04806 12.419 2.94002 12.3961 2.83065 12.395C2.72128 12.3939 2.61279 12.4146 2.51154 12.4559C2.41028 12.4973 2.31829 12.5584 2.24095 12.6357C2.16361 12.7131 2.10248 12.8051 2.06114 12.9063C2.0198 13.0076 1.99908 13.1161 2.0002 13.2254C2.00131 13.3348 2.02423 13.4428 2.06762 13.5432C2.11102 13.6436 2.174 13.7344 2.2529 13.8101L8.00725 19.5645C8.16142 19.7186 8.37048 19.8051 8.58846 19.8051C8.80645 19.8051 9.01551 19.7186 9.16968 19.5645L22.3225 6.41165C22.4413 6.29618 22.5224 6.14752 22.5553 5.98515C22.5881 5.82278 22.5711 5.65427 22.5066 5.50171C22.442 5.34915 22.3329 5.21965 22.1934 5.13019C22.054 5.04073 21.8908 4.99547 21.7252 5.00036Z" fill="#0B1932"/>
</svg>
