<svg width="22" height="22" viewBox="0 0 22 22" fill="none" xmlns="http://www.w3.org/2000/svg">
<path d="M18.2029 3.90963C18.2029 3.90963 17.9029 2.21043 16.6029 2.21043H14.9931V1.76387C14.9931 1.55169 14.9088 1.34821 14.7588 1.19818C14.6088 1.04815 14.4053 0.963867 14.1931 0.963867H7.81889C7.60672 0.963867 7.40323 1.04815 7.25321 1.19818C7.10318 1.34821 7.01889 1.55169 7.01889 1.76387V2.21043H5.40289C5.20896 2.20979 5.01724 2.25152 4.84111 2.33269C4.66499 2.41385 4.50871 2.53251 4.38321 2.68035C4.09223 3.03653 3.89297 3.4586 3.80289 3.90963C3.80289 3.90963 3.30561 6.42467 2.85553 8.57859H4.35633L5.40001 3.79971L16.6288 3.79267L17.6663 8.57859H19.1888L18.2029 3.90963ZM0.60289 11.7727C0.60289 12.1968 0.771286 12.6036 1.07107 12.9036C1.37085 13.2036 1.77749 13.3723 2.20161 13.3727L3.80289 19.7295C3.80289 19.7295 4.10289 21.3962 5.40289 21.3962H16.6029C17.9029 21.3962 18.2029 19.7295 18.2029 19.7295L19.8285 13.3677C20.2489 13.3594 20.6491 13.1858 20.9423 12.8843C21.2354 12.5829 21.398 12.1781 21.3946 11.7576C21.3912 11.3371 21.2222 10.935 20.9243 10.6383C20.6263 10.3416 20.2234 10.1744 19.8029 10.1728H2.20289C1.77857 10.1728 1.37163 10.3414 1.07158 10.6414C0.771523 10.9414 0.602932 11.3483 0.60289 11.7727ZM14.9477 18.4077L14.952 16.6079L15.5773 14.1495C15.6079 13.9235 15.7271 13.719 15.9086 13.5809C16.09 13.4428 16.3189 13.3825 16.5448 13.4131C16.7708 13.4438 16.9753 13.563 17.1134 13.7444C17.2514 13.9259 17.3118 14.1547 17.2811 14.3807L16.952 16.6117L16.6522 18.6392C16.637 18.7511 16.5999 18.859 16.543 18.9566C16.4861 19.0541 16.4106 19.1396 16.3207 19.2079C16.2308 19.2763 16.1283 19.3263 16.0191 19.3551C15.9099 19.3839 15.7961 19.3909 15.6842 19.3757C15.5723 19.3605 15.4644 19.3234 15.3668 19.2665C15.2693 19.2097 15.1838 19.1341 15.1155 19.0442C15.0471 18.9543 14.997 18.8519 14.9683 18.7427C14.9395 18.6334 14.9325 18.5196 14.9477 18.4077ZM11.7477 14.253C11.7477 14.1409 11.7697 14.03 11.8126 13.9264C11.8555 13.8229 11.9183 13.7288 11.9976 13.6496C12.0768 13.5703 12.1709 13.5075 12.2744 13.4646C12.3779 13.4217 12.4889 13.3997 12.601 13.3997L12.6072 13.401L12.6183 13.3997C12.7249 13.3997 12.8304 13.4211 12.9287 13.4626C13.0269 13.504 13.1159 13.5648 13.1903 13.6411C13.2734 13.7201 13.3396 13.815 13.3849 13.9203C13.4303 14.0256 13.4537 14.139 13.4539 14.2536V18.5416C13.4555 18.6546 13.4346 18.7668 13.3924 18.8717C13.3502 18.9765 13.2876 19.072 13.2083 19.1524C13.1289 19.2329 13.0343 19.2968 12.9301 19.3404C12.8258 19.384 12.7139 19.4064 12.6009 19.4064C12.4879 19.4064 12.376 19.384 12.2717 19.3404C12.1675 19.2968 12.0729 19.2329 11.9935 19.1524C11.9142 19.072 11.8516 18.9765 11.8094 18.8717C11.7672 18.7668 11.7463 18.6546 11.7479 18.5416L11.7477 14.253ZM8.55089 14.253C8.55126 14.0826 8.60282 13.9162 8.69888 13.7755C8.79494 13.6348 8.93106 13.5261 9.08961 13.4637C9.18897 13.4212 9.29593 13.3992 9.40401 13.3992C9.51209 13.3992 9.61905 13.4212 9.71841 13.4637C9.87698 13.5261 10.0131 13.6348 10.1092 13.7756C10.2052 13.9163 10.2567 14.0827 10.257 14.2531V18.5411C10.257 18.6532 10.2349 18.7641 10.192 18.8676C10.1492 18.971 10.0863 19.0651 10.0071 19.1443C9.92794 19.2235 9.83391 19.2863 9.73042 19.3292C9.62694 19.372 9.51602 19.3941 9.40401 19.3941C9.292 19.3941 9.18108 19.372 9.0776 19.3292C8.97411 19.2863 8.88008 19.2235 8.80088 19.1443C8.72167 19.0651 8.65884 18.971 8.61598 18.8676C8.57311 18.7641 8.55105 18.6532 8.55105 18.5411L8.55089 14.253ZM4.73377 14.381C4.71859 14.2691 4.72559 14.1553 4.75438 14.0462C4.78317 13.937 4.83318 13.8346 4.90155 13.7447C4.96992 13.6549 5.05532 13.5794 5.15287 13.5226C5.25043 13.4657 5.35822 13.4286 5.47009 13.4135C5.58197 13.3983 5.69574 13.4053 5.80491 13.4341C5.91407 13.4629 6.01651 13.5129 6.10635 13.5812C6.19619 13.6496 6.27168 13.735 6.32852 13.8326C6.38536 13.9301 6.42243 14.0379 6.43761 14.1498L7.06401 16.5898L7.06737 18.4077C7.08256 18.5196 7.07557 18.6334 7.04679 18.7425C7.01801 18.8517 6.96801 18.9541 6.89965 19.044C6.83128 19.1338 6.74589 19.2093 6.64834 19.2662C6.55079 19.323 6.44301 19.3601 6.33113 19.3753C6.21926 19.3905 6.10548 19.3835 5.99631 19.3547C5.88714 19.3259 5.7847 19.2759 5.69485 19.2076C5.605 19.1392 5.5295 19.0538 5.47265 18.9563C5.4158 18.8587 5.37872 18.7509 5.36353 18.6391L4.73377 14.381Z" fill="#E5A224"/>
</svg>
