<svg width="24" height="24" viewBox="0 0 24 24" fill="none" xmlns="http://www.w3.org/2000/svg">
<g clip-path="url(#clip0_581_1266)">
<path d="M13.9291 0.668232C13.4016 0.348652 12.7967 0.179687 12.1801 0.179688C11.5634 0.179687 10.9585 0.348652 10.4311 0.668232L2.55605 5.44123C2.0598 5.74193 1.64945 6.16549 1.36463 6.67102C1.07981 7.17656 0.93013 7.74698 0.930052 8.32723V9.17323C0.930052 9.4716 1.04858 9.75775 1.25956 9.96873C1.47054 10.1797 1.75668 10.2982 2.05505 10.2982C2.35342 10.2982 2.63957 10.1797 2.85055 9.96873C3.06153 9.75775 3.18005 9.4716 3.18005 9.17323V8.32723C3.17985 8.13369 3.22959 7.94338 3.32445 7.77468C3.41931 7.60599 3.55608 7.46461 3.72155 7.36423L11.5966 2.59273C11.7725 2.48601 11.9743 2.42958 12.1801 2.42958C12.3858 2.42958 12.5876 2.48601 12.7636 2.59273L20.6386 7.36423C20.804 7.46461 20.9408 7.60599 21.0357 7.77468C21.1305 7.94338 21.1803 8.13369 21.1801 8.32723V16.0192C21.1803 16.2128 21.1305 16.4031 21.0357 16.5718C20.9408 16.7405 20.804 16.8819 20.6386 16.9822L14.5966 20.6422C14.4702 20.7189 14.3602 20.8196 14.2727 20.9388C14.1853 21.0579 14.1222 21.1931 14.087 21.3367C14.0519 21.4802 14.0453 21.6293 14.0678 21.7753C14.0902 21.9214 14.1412 22.0616 14.2178 22.188C14.2944 22.3143 14.3952 22.4244 14.5143 22.5118C14.6335 22.5992 14.7687 22.6623 14.9122 22.6975C15.0558 22.7327 15.2048 22.7392 15.3509 22.7168C15.497 22.6943 15.6372 22.6434 15.7636 22.5667L21.8041 18.9067C22.3007 18.6058 22.7114 18.1817 22.9962 17.6756C23.2811 17.1695 23.4305 16.5985 23.4301 16.0177V8.32723C23.43 7.74698 23.2803 7.17656 22.9955 6.67102C22.7107 6.16549 22.3003 5.74193 21.8041 5.44123L13.9291 0.668232Z" fill="#0A1735"/>
<path fill-rule="evenodd" clip-rule="evenodd" d="M6.55655 11.1609L6.55505 11.0979V10.6689C6.55505 10.3706 6.67358 10.0844 6.88456 9.87345C7.09554 9.66247 7.38169 9.54395 7.68005 9.54395C7.97842 9.54395 8.26457 9.66247 8.47555 9.87345C8.68653 10.0844 8.80505 10.3706 8.80505 10.6689V11.0979L8.80355 11.1609C9.50911 11.3042 10.1804 11.5823 10.7806 11.9799C10.7951 11.9645 10.8101 11.9495 10.8256 11.9349L11.1271 11.6304C11.3403 11.4317 11.6224 11.3235 11.9138 11.3287C12.2053 11.3338 12.4834 11.4519 12.6895 11.658C12.8956 11.8641 13.0137 12.1422 13.0188 12.4337C13.024 12.7251 12.9158 13.0072 12.7171 13.2204L12.4156 13.5249L12.3706 13.5669C12.7606 14.1579 13.0456 14.8269 13.1911 15.5454C13.211 15.5445 13.231 15.544 13.2511 15.5439H13.6801C13.9784 15.5439 14.2646 15.6625 14.4755 15.8735C14.6865 16.0844 14.8051 16.3706 14.8051 16.6689C14.8051 16.9673 14.6865 17.2535 14.4755 17.4644C14.2646 17.6754 13.9784 17.7939 13.6801 17.7939H13.2511L13.1941 17.7924C13.0486 18.5124 12.7651 19.1814 12.3736 19.7724C12.3879 19.7856 12.4019 19.7991 12.4156 19.8129L12.7186 20.1159C12.9173 20.3292 13.0255 20.6113 13.0203 20.9027C13.0152 21.1942 12.8971 21.4723 12.691 21.6784C12.4849 21.8845 12.2068 22.0026 11.9153 22.0077C11.6239 22.0129 11.3418 21.9047 11.1286 21.7059L10.8241 21.4029C10.8112 21.3903 10.7987 21.3773 10.7866 21.3639C10.1941 21.7554 9.52355 22.0389 8.80355 22.1859L8.80505 22.2399V22.6689C8.80505 22.9673 8.68653 23.2535 8.47555 23.4644C8.26457 23.6754 7.97842 23.7939 7.68005 23.7939C7.38169 23.7939 7.09554 23.6754 6.88456 23.4644C6.67358 23.2535 6.55505 22.9673 6.55505 22.6689V22.2399V22.1859C5.83505 22.0404 5.16605 21.7554 4.57505 21.3639L4.53605 21.4029L4.23305 21.7074C4.02078 21.9123 3.73655 22.0255 3.44158 22.0228C3.14661 22.0201 2.8645 21.9017 2.65601 21.693C2.44752 21.4843 2.32934 21.2021 2.32692 20.9071C2.32449 20.6122 2.43802 20.328 2.64305 20.1159L2.94455 19.8129C2.95818 19.7995 2.97218 19.7865 2.98655 19.7739C2.59505 19.1814 2.31155 18.5109 2.16605 17.7924H1.68005C1.38169 17.7924 1.09554 17.6739 0.88456 17.4629C0.673581 17.252 0.555054 16.9658 0.555054 16.6674C0.555054 16.3691 0.673581 16.0829 0.88456 15.8719C1.09554 15.661 1.38169 15.5424 1.68005 15.5424H2.10905L2.16905 15.5454C2.31273 14.8393 2.59133 14.1675 2.98955 13.5669L2.94455 13.5249L2.64155 13.2219C2.43652 13.0099 2.32299 12.7257 2.32542 12.4308C2.32784 12.1358 2.44602 11.8536 2.65451 11.6449C2.863 11.4362 3.14511 11.3178 3.44008 11.3151C3.73505 11.3124 4.01928 11.4256 4.23155 11.6304L4.53605 11.9334L4.57955 11.9784C5.17984 11.5813 5.85111 11.3037 6.55655 11.1609ZM7.68005 13.2984C8.12343 13.2979 8.56257 13.3847 8.97231 13.5541C9.38205 13.7235 9.75434 13.9721 10.0679 14.2856C10.3814 14.5992 10.63 14.9714 10.7994 15.3812C10.9688 15.7909 11.0556 16.2301 11.0551 16.6734C11.0556 17.1168 10.9688 17.556 10.7994 17.9657C10.63 18.3754 10.3814 18.7477 10.0679 19.0613C9.75434 19.3748 9.38205 19.6233 8.97231 19.7927C8.56257 19.9621 8.12343 20.049 7.68005 20.0484C7.23668 20.049 6.79754 19.9621 6.3878 19.7927C5.97806 19.6233 5.60576 19.3748 5.29225 19.0613C4.97873 18.7477 4.73015 18.3754 4.56075 17.9657C4.39135 17.556 4.30446 17.1168 4.30505 16.6734C4.30446 16.2301 4.39135 15.7909 4.56075 15.3812C4.73015 14.9714 4.97873 14.5992 5.29225 14.2856C5.60576 13.9721 5.97806 13.7235 6.3878 13.5541C6.79754 13.3847 7.23668 13.2979 7.68005 13.2984Z" fill="#0A1735"/>
</g>
<defs>
<clipPath id="clip0_581_1266">
<rect width="24" height="24" fill="white" transform="matrix(-1 0 0 1 24 0)"/>
</clipPath>
</defs>
</svg>
