<svg width="24" height="24" viewBox="0 0 24 24" fill="none" xmlns="http://www.w3.org/2000/svg">
<g clip-path="url(#clip0_581_1227)">
<path d="M9.59493 5.87963V1.42284C9.59535 0.636376 10.2326 1.02516e-06 11.0182 1.02516e-06H13.0872C13.4778 -0.000467725 13.8387 0.159845 14.0942 0.41672C14.3511 0.671814 14.5114 1.03228 14.5109 1.42289V5.93016C16.1473 6.7193 17.2765 8.38969 17.2778 10.3276V21.6689C17.2769 22.9575 16.2332 23.9991 14.9458 24H9.05371C7.76502 23.9996 6.72261 22.9562 6.72261 21.6689V10.3276C6.7235 8.34717 7.90147 6.64664 9.59493 5.87963ZM11.0665 1.47159V3.09506H13.0393V1.47159H11.0665ZM8.19374 21.6688C8.19458 22.1431 8.579 22.527 9.05371 22.5284H14.9458C15.4196 22.527 15.8053 22.1422 15.8063 21.6688V10.3276C15.8076 8.84231 14.855 7.57795 13.53 7.10944L13.0394 6.93628V3.67781H11.0665V6.91458L10.5568 7.07977C9.18664 7.52302 8.19289 8.80861 8.19378 10.3276L8.19374 21.6688Z" fill="#0076AC"/>
<path d="M9.79244 13.085H14.2076V18.481H9.79244V13.085Z" fill="#0076AC"/>
</g>
<defs>
<clipPath id="clip0_581_1227">
<rect width="24" height="24" fill="white" transform="matrix(-1 0 0 1 24 0)"/>
</clipPath>
</defs>
</svg>
