<svg width="25" height="24" viewBox="0 0 25 24" fill="none" xmlns="http://www.w3.org/2000/svg">
<path fill-rule="evenodd" clip-rule="evenodd" d="M15.5402 4.0515C16.5502 4.4535 16.8592 5.8535 17.2722 6.3035C17.6852 6.7535 18.2762 6.9065 18.6032 6.9065C20.3412 6.9065 21.7502 8.3155 21.7502 10.0525V15.8475C21.7502 18.1775 19.8602 20.0675 17.5302 20.0675H7.47024C5.13924 20.0675 3.25024 18.1775 3.25024 15.8475V10.0525C3.25024 8.3155 4.65924 6.9065 6.39724 6.9065C6.72324 6.9065 7.31424 6.7535 7.72824 6.3035C8.14124 5.8535 8.44924 4.4535 9.45924 4.0515C10.4702 3.6495 14.5302 3.6495 15.5402 4.0515Z" stroke="#2B6F71" stroke-width="1.5" stroke-linecap="round" stroke-linejoin="round"/>
<path d="M17.9956 9.5H18.0046" stroke="#2B6F71" stroke-width="2" stroke-linecap="round" stroke-linejoin="round"/>
<path fill-rule="evenodd" clip-rule="evenodd" d="M15.679 13.1282C15.679 11.3722 14.256 9.94922 12.5 9.94922C10.744 9.94922 9.32104 11.3722 9.32104 13.1282C9.32104 14.8842 10.744 16.3072 12.5 16.3072C14.256 16.3072 15.679 14.8842 15.679 13.1282Z" stroke="#2B6F71" stroke-width="1.5" stroke-linecap="round" stroke-linejoin="round"/>
</svg>
